HIERARCHY
ROOT Hips
{
  OFFSET 0.0 0.0 0.0
  CHANNELS 6 XPOSITION YPOSITION ZPOSITION ZROTATION XROTATION YROTATION 
  JOINT LeftUpLeg
  {
    OFFSET 0.08945800000000001 -0.0866707 0.0010165200000000001
    CHANNELS 3 ZROTATION XROTATION YROTATION 
    JOINT LeftLeg
    {
      OFFSET 0.0 -0.444227 0.013727000000000001
      CHANNELS 3 ZROTATION XROTATION YROTATION 
      JOINT LeftFoot
      {
        OFFSET -0.0025354900000000005 -0.42092399999999996 -0.014605900000000002
        CHANNELS 3 ZROTATION XROTATION YROTATION 
        End Site
        {
          OFFSET -0.0004 -0.0441509 0.08499100000000001
        }
      }
    }
  }
  JOINT Spine
  {
    OFFSET 0.0 0.118905 0.0
    CHANNELS 3 ZROTATION XROTATION YROTATION 
    JOINT Spine1
    {
      OFFSET 0.0 0.25657399999999997 0.00127663
      CHANNELS 3 ZROTATION XROTATION YROTATION 
      End Site
      {
        OFFSET -0.0029 0.21508359999999999 0.02525291
      }
      JOINT RightArm
      {
        OFFSET -0.162727 -0.05365632 0.0010212299999999997
        CHANNELS 3 ZROTATION XROTATION YROTATION 
        JOINT RightForeArm
        {
          OFFSET -0.26364 0.00099144 -0.0142434
          CHANNELS 3 ZROTATION XROTATION YROTATION 
          End Site
          {
            OFFSET -0.220324 0.0008536199999999999 0.010221599999999999
          }
        }
      }
      JOINT LeftArm
      {
        OFFSET 0.162727 -0.053656319900000006 0.0010212299999999997
        CHANNELS 3 ZROTATION XROTATION YROTATION 
        JOINT LeftForeArm
        {
          OFFSET 0.26259699999999997 0.00099144 -0.0142434
          CHANNELS 3 ZROTATION XROTATION YROTATION 
          End Site
          {
            OFFSET 0.220902 0.0008536199999999999 0.010221599999999999
          }
        }
      }
    }
  }
  JOINT RightUpLeg
  {
    OFFSET -0.08945800000000001 -0.0866707 0.0010165200000000001
    CHANNELS 3 ZROTATION XROTATION YROTATION 
    JOINT RightLeg
    {
      OFFSET 0.0 -0.444227 0.013727000000000001
      CHANNELS 3 ZROTATION XROTATION YROTATION 
      JOINT RightFoot
      {
        OFFSET 0.0025354900000000005 -0.42092399999999996 -0.014605900000000002
        CHANNELS 3 ZROTATION XROTATION YROTATION 
        End Site
        {
          OFFSET 0.0004 -0.0441509 0.08499100000000001
        }
      }
    }
  }
}
MOTION
Frames: 8
Frame Time: 0.033333
1.6147399999999998 1.0305218376523146 0.020524900000000002 -2.331500014222662 0.24759699877518032 -91.1392985486038 -1.3575899572163022 -0.885057993723515 3.5672601006568585 2.0505500011111195 16.358600175409435 11.459000686567576 -1.4054536817639303 -15.295103863145306 0.007379735918667796 3.1353099729219664 -9.435790225156726 1.4569799885322716 -3.192270122061876 25.73779886819802 2.2564198001015314 81.20478840082026 -20.53225727718472 13.322406065741285 7.382590110647641 31.748197998174575 8.530230084618095 -87.75036358811857 -18.372460961620185 -21.327948702281816 -16.64040012018582 31.989699826847886 -0.016920501335550644 0.5018810195520675 -1.984109976290055 -3.671180148218133 -1.8203000553217583 16.902300308815374 -10.745900762687919 2.799336382743624 -14.985598963548055 -0.10784691274614272 
1.6144300000000003 1.0305218376523146 0.020593200000000002 -2.274809870998379 0.2643530002739554 -91.09359775286725 -1.3470900354712885 -0.9487179714698255 3.528349793615765 2.0666999834036144 16.39569834788636 11.431899349714612 -1.424683652485278 -15.317904742142101 0.007380542167804441 3.090070001510975 -9.487530615666865 1.4060400108154936 -3.1014900778032364 25.735000198185606 2.17152012183145 81.21748572248731 -20.63004509553179 13.365540417897208 7.456499587656349 31.6733015588308 8.391780442594644 -87.84410793447701 -18.657920180244403 -21.353666072054207 -16.753400477361804 32.224398787107866 0.2545430076763924 0.5276710134452424 -2.024779910816073 -3.6377002684540227 -1.8247998693243273 16.912800017116975 -10.828499947868176 2.8017958911750633 -14.992697237642991 -0.10784993430443766 
1.6138 1.0305218376523146 0.0207538 -2.17344986371539 0.27023502044895287 -90.99399993439012 -1.361649971069346 -1.0352500649515401 3.442569874716398 2.0957699088414232 16.410699150851 11.404699828892328 -1.4389735821677083 -15.335504432085932 0.007381157485139338 2.999640004447299 -9.6900098660646 1.3139199688190621 -2.9391998739252676 25.87669930270669 2.023470222042723 81.29746723766816 -20.90281040758354 13.530649142024865 7.573499874365021 31.671300313403986 8.09092000116569 -88.12380418098903 -19.345650220225696 -21.49045085546747 -16.96240085086961 32.83839864254616 0.8311220175603342 0.5313170004407068 -2.083489869043975 -3.6526101445253376 -1.8206699527539967 16.907600535611305 -10.915999793777916 2.8142454050412926 -15.002496851554668 -0.10785536377121929 
1.61312 1.0305218376523146 0.020995200000000002 -2.095410043249528 0.2589450112356127 -90.88009969979099 -1.405629986021881 -1.0758299263578783 3.3529599272399464 2.1254701326735774 16.38520034713205 11.398699507706473 -1.4076635681255467 -15.333004582849707 0.007381072441280043 2.9765200275502175 -9.825180163512798 1.2740200314002574 -2.852469918401034 25.882998444668736 1.951869989303714 81.28953738804178 -21.114481385056823 13.468839345130835 7.591940531350409 31.618800064348683 7.994790211239639 -88.16302995739241 -19.529032261704074 -21.363843053917524 -16.998599145923382 33.076297546432286 0.9663840423146519 0.49582397577958853 -2.0960599784377374 -3.7483501867818756 -1.8031601224864344 16.86009998502845 -10.936100186731617 2.8314956881203943 -14.998297992762403 -0.10785274241932104 
1.61262 1.0305218376523146 0.0212639 -2.0423800276467263 0.24364800217657578 -90.82250071452027 -1.4509800942332387 -1.088060020397021 3.3148799150698327 2.1370199825600693 16.350400533310832 11.417100891104132 -1.3358935411526394 -15.3220045631914 0.007380683073806606 3.0664100127826397 -9.787070269265065 1.303850028826642 -2.940560148787158 25.700900478754317 2.0056701087354347 81.15285847256065 -21.06801390058593 13.135470618347206 7.500100100223126 31.35589925300572 8.252330177857786 -87.79921993125168 -18.877722497924584 -20.915466748115577 -16.795401018115506 32.5757027368783 0.40127798932818615 0.45510398877355923 -2.0947799582985946 -3.8173000926795084 -1.793649937840838 16.811100207922777 -10.92159969512368 2.8369363606811326 -14.9836984634115 -0.10784564542588657 
1.61225 1.0305218376523146 0.0215036 -1.974789969724161 0.2376259898040195 -90.84519743313223 -1.4690800955337724 -1.1212100233685605 3.3411601351185145 2.1230099839119037 16.322700701131847 11.433699958334556 -1.2892234988841769 -15.325404289850775 0.007380806470778916 3.1994599633803724 -9.77535051842297 1.3216699923712052 -3.1546001346853747 25.725900678663855 2.0919398802643387 81.09516386464155 -20.902267407544528 13.021422680907271 7.4433002470853 31.10299783860766 8.485660538962822 -87.56760138630737 -18.42471873895995 -20.706659327451824 -16.625300279478214 32.20159961565836 -0.05620930190877778 0.44231899522520607 -2.139050042847444 -3.7863998899875475 -1.8066398904251444 16.795699838891693 -10.92220075177064 2.833187013713619 -14.974798726922973 -0.10784135654733547 
1.61193 1.0305218376523146 0.021715300000000003 -1.9041000731354678 0.24803698568769078 -90.88889698344197 -1.4565900274193462 -1.1612000339070447 3.3871399013939825 2.100109853728732 16.294200029272677 11.419399249759842 -1.2998333439861456 -15.348304206590536 0.00738161522120554 3.2986498914980014 -9.88562989898835 1.2939699467488068 -3.331670014153605 26.019100209164993 2.124679965163972 81.19873685321562 -20.92346319208637 13.311614366852664 7.5206000592432725 31.192900203557954 8.31582020128764 -87.9039199010388 -19.065335841593786 -21.00749842453962 -16.705399615422248 32.832200245874375 0.29082099716395976 0.45486498551346166 -2.1918301162153058 -3.730040157164364 -1.8262100899445233 16.782099224706904 -10.931900474165706 2.8370970835700398 -14.97539636847535 -0.10784143658861481 
1.61168 1.0305218376523146 0.0219379 -1.8787299757936902 0.26461099999768206 -90.89929936154789 -1.444600057218212 -1.1597200172912676 3.4037398223980526 2.0887602137622863 16.263699819533983 11.404300262825883 -1.3023434385061252 -15.361804075485066 0.007382089632538272 3.363190269956156 -9.87318017167871 1.2953599969666103 -3.368529983783225 26.005000991170796 2.135640070904315 81.24167825252749 -21.150787255590025 13.479438091175401 7.649099823193307 31.49620158384154 7.918320267065822 -88.38949853970252 -19.944318008524604 -21.284448935005297 -16.910699733947197 33.75269801012782 0.9697610372506943 0.4619289485799887 -2.1892999580146393 -3.7322100228863127 -1.8343399360475425 16.752399854648395 -10.918100076947695 2.871926779468873 -14.979397151781685 -0.10784403126008663 
